<?xml version="1.0" encoding="UTF-8"?>
<svg id="Capa_1" data-name="Capa 1" xmlns="http://www.w3.org/2000/svg" viewBox="0 0 477.77 477.97">
  <defs>
    <style>
      .cls-1 {
        fill: #fff;
      }
    </style>
  </defs>
  <path class="cls-1" d="M251.91,477.97h-28c-1.18-.29-2.34-.76-3.53-.85-22.31-1.63-43.96-6.34-64.85-14.28-54.9-20.88-96.97-56.95-125.48-108.22C2.97,305.91-5.68,253.72,3.59,198.69c7.72-45.83,27.42-85.98,58.62-120.24C99.49,37.51,145.73,12.47,200.4,3.29c35.7-6,70.99-3.75,105.65,6.52,48.7,14.43,88.94,41.65,120.41,81.53,24.92,31.58,40.88,67.29,47.62,107.01,1.5,8.84,2.48,17.77,3.69,26.66v28c-.28,1.34-.71,2.66-.81,4.01-1.38,18.98-5.03,37.52-10.95,55.6-15.11,46.18-41.86,84.35-79.92,114.4-29.99,23.68-63.9,39.23-101.5,46.34-10.8,2.04-21.78,3.11-32.68,4.62ZM50.19,358.44c47.83,68.92,112.58,105.66,196.41,102.99,78.76-2.51,138.87-40.05,182.52-105.62-36.3-23.42-71.78-46.3-107.28-69.2-35.48,61.76-235.79,47.92-271.65,71.83ZM429.18,121.77C377.97,47.54,308.78,10.03,218.82,17.32c-72.32,5.86-127.78,42.14-168.51,102.3,35.85,23.91,70.94,47.33,106.21,70.86,19.63-30.3,46.97-46.96,82.88-46.76,35.89,.2,153.41,1.58,189.77-21.94ZM42.06,344.3c1.43-.77,2.41-1.21,3.3-1.8,33.75-22.48,96.3-113.36,103.04-133.45,1.12-3.34,.39-4.85-2.41-6.7-33.16-21.96-66.23-44.06-99.33-66.11-1.27-.85-2.6-1.62-4.48-2.79-34.96,70.5-35.23,140.44-.11,210.85Zm394.61-2.57c18.32-35.98,26.76-73.59,24.89-113.36-1.53-32.5-9.74-63.27-25.09-92.35-36.26,23.47-100.25,112.53-107.13,133.81-.31,.95,.59,2.95,1.52,3.55,35.06,22.74,70.18,45.37,105.81,68.35Zm-118.29-102.5c.23-43.67-35.62-79.78-79.24-79.8-43.92-.02-79.54,35.35-79.8,79.24-.26,43.85,35.55,79.7,79.72,79.81,43.35,.11,79.09-35.6,79.32-79.26Z"/>
  <path class="cls-1" d="M430.25,246.6v-15.33h15.47v15.33h-15.47Z"/>
  <path class="cls-1" d="M413.98,263.32v15.2h-15.47v-15.2h15.47Z"/>
  <path class="cls-1" d="M270.62,239.26c-.14,17.43-14.51,31.61-31.91,31.51-17.43-.1-31.64-14.4-31.62-31.82,.02-17.6,14.56-31.94,32.17-31.72,17.44,.21,31.51,14.58,31.37,32.04Zm-15.9-.45c-.08-8.64-7.15-15.66-15.8-15.69-8.84-.03-16.03,7.2-15.94,16.04,.09,8.64,31.82,8.5,31.74-.35Z"/>
</svg>